<svg width="207" height="39" viewBox="0 0 207 39" fill="none" xmlns="http://www.w3.org/2000/svg">
<path d="M11.6617 29.4533C10.6251 29.4533 9.41117 29.4124 8.01995 29.3304C4.82834 29.1939 2.45509 29.1256 0.900199 29.1256C0.300066 28.3883 0 27.528 0 26.5449C0.927478 26.5449 1.58217 26.3947 1.96407 26.0943C2.34597 25.7666 2.53692 25.2204 2.53692 24.4557V5.20247C2.53692 4.4378 2.34597 3.90526 1.96407 3.60486C1.58217 3.27714 0.927478 3.11329 0 3.11329C0 2.13014 0.300066 1.26989 0.900199 0.532536C2.42781 0.532536 4.78742 0.491572 7.97903 0.409643C9.39753 0.355024 10.3659 0.327715 10.8842 0.327715C15.167 0.327715 18.1949 0.996798 19.968 2.33496C21.7412 3.67313 22.6277 5.29805 22.6277 7.20972C22.6277 8.79367 22.2185 10.1318 21.4002 11.2242C20.6091 12.2893 19.2861 13.2042 17.4311 13.9688C19.8589 14.4604 21.5911 15.2387 22.6277 16.3038C23.6643 17.3689 24.1826 18.9665 24.1826 21.0966C24.1826 26.6678 20.009 29.4533 11.6617 29.4533ZM10.516 12.9857C14.1713 12.9857 15.999 11.3744 15.999 8.1519C15.999 6.62256 15.5762 5.4346 14.7305 4.588C13.9122 3.74141 12.6573 3.31811 10.9661 3.31811C10.2023 3.31811 9.64304 3.37273 9.28841 3.48197V12.9038C9.77943 12.9584 10.1886 12.9857 10.516 12.9857ZM11.007 26.4629C14.826 26.4629 16.7355 24.8107 16.7355 21.5063C16.7355 19.6219 16.2581 18.2291 15.3034 17.3279C14.3486 16.3994 12.7937 15.9351 10.6387 15.9351L9.28841 15.9761V26.34C10.0249 26.422 10.5978 26.4629 11.007 26.4629Z" fill="white"/>
<path d="M47.0073 2.00725C43.8429 6.02175 41.7152 9.83143 40.624 13.4363C39.5602 17.0412 39.0282 20.646 39.0282 24.2509V26.5449C39.0282 27.4188 38.7009 28.1425 38.0462 28.716C37.3915 29.2622 36.123 29.5353 34.2408 29.5353C32.8769 29.5353 31.7448 29.3304 30.8446 28.9208C31.1174 24.7971 32.0858 20.8508 33.7498 17.0821C35.4411 13.3134 38.0735 9.24428 41.647 4.87475C39.3556 5.55749 36.996 5.89886 34.5681 5.89886C32.986 5.89886 31.8403 6.13099 31.131 6.59525C30.4491 7.05951 29.958 7.90611 29.658 9.13504H27.3666C26.8755 8.67078 26.4664 8.08362 26.139 7.37358C25.8117 6.63622 25.648 5.77597 25.648 4.79282C25.648 3.34542 26.0708 2.21207 26.9165 1.39279C27.7621 0.546191 29.0715 0.122894 30.8446 0.122894C31.3629 0.122894 32.1131 0.204822 33.0951 0.368679C34.1044 0.505226 34.7455 0.587155 35.0182 0.614464C38.1553 1.07873 40.4058 1.31086 41.7697 1.31086C42.6699 1.31086 43.3246 1.24258 43.7338 1.10604C44.143 0.942178 44.7431 0.573499 45.5342 0L47.0073 2.00725Z" fill="white"/>
<path d="M69.1612 15.4845C69.1612 17.3962 68.5747 18.9392 67.4017 20.1135C66.2288 21.2605 64.6739 21.834 62.7371 21.834C60.773 21.834 59.2045 21.2605 58.0315 20.1135C56.8858 18.9392 56.3129 17.3962 56.3129 15.4845C56.3129 13.5728 56.8858 12.0435 58.0315 10.8965C59.2045 9.74951 60.773 9.176 62.7371 9.176C64.6739 9.176 66.2288 9.74951 67.4017 10.8965C68.5747 12.0435 69.1612 13.5728 69.1612 15.4845Z" fill="#FE6A0F"/>
<path d="M91.1803 29.4533C90.1437 29.4533 88.9298 29.4124 87.5386 29.3304C84.347 29.1939 81.9737 29.1256 80.4188 29.1256C79.8187 28.3883 79.5186 27.528 79.5186 26.5449C80.4461 26.5449 81.1008 26.3947 81.4827 26.0943C81.8646 25.7666 82.0555 25.2204 82.0555 24.4557V5.20247C82.0555 4.4378 81.8646 3.90526 81.4827 3.60486C81.1008 3.27714 80.4461 3.11329 79.5186 3.11329C79.5186 2.13014 79.8187 1.26989 80.4188 0.532536C81.9464 0.532536 84.306 0.491572 87.4977 0.409643C88.9162 0.355024 89.8846 0.327715 90.4028 0.327715C94.6856 0.327715 97.7135 0.996798 99.4867 2.33496C101.26 3.67313 102.146 5.29805 102.146 7.20972C102.146 8.79367 101.737 10.1318 100.919 11.2242C100.128 12.2893 98.8047 13.2042 96.9497 13.9688C99.3775 14.4604 101.11 15.2387 102.146 16.3038C103.183 17.3689 103.701 18.9665 103.701 21.0966C103.701 26.6678 99.5276 29.4533 91.1803 29.4533ZM90.0346 12.9857C93.6899 12.9857 95.5176 11.3744 95.5176 8.1519C95.5176 6.62256 95.0948 5.4346 94.2491 4.588C93.4308 3.74141 92.176 3.31811 90.4847 3.31811C89.7209 3.31811 89.1617 3.37273 88.807 3.48197V12.9038C89.298 12.9584 89.7072 12.9857 90.0346 12.9857ZM90.5256 26.4629C94.3446 26.4629 96.2541 24.8107 96.2541 21.5063C96.2541 19.6219 95.7767 18.2291 94.822 17.3279C93.8672 16.3994 92.3124 15.9351 90.1573 15.9351L88.807 15.9761V26.34C89.5436 26.422 90.1164 26.4629 90.5256 26.4629Z" fill="white"/>
<path d="M125.298 24.3328C125.298 24.9882 125.462 25.5344 125.789 25.9714C126.144 26.4083 126.635 26.6541 127.262 26.7087V27.8557C126.826 28.3473 126.144 28.7296 125.216 29.0027C124.316 29.2758 123.402 29.4124 122.475 29.4124C121.548 29.4124 120.756 29.1666 120.102 28.675C119.447 28.1834 119.011 27.5007 118.792 26.6268C117.483 28.4838 115.614 29.4124 113.187 29.4124C111.277 29.4124 109.79 28.8252 108.726 27.6509C107.663 26.4766 107.131 24.8926 107.131 22.899V11.6339C107.131 11.1696 106.953 10.8419 106.599 10.6507C106.271 10.4596 105.78 10.364 105.126 10.364V8.56154C105.535 8.23383 106.312 7.90611 107.458 7.5784C108.631 7.25068 109.872 7.08682 111.182 7.08682C111.945 7.08682 112.505 7.14144 112.859 7.25068C113.214 7.33261 113.459 7.52378 113.596 7.82418C113.732 8.12459 113.8 8.6025 113.8 9.25793V23.0219C113.8 23.8685 113.937 24.5103 114.21 24.9473C114.51 25.3569 114.987 25.5617 115.642 25.5617C116.187 25.5617 116.719 25.3979 117.237 25.0702C117.783 24.7151 118.247 24.2918 118.629 23.8003V11.6339C118.629 10.7873 117.865 10.364 116.337 10.364V8.56154C116.774 8.20652 117.565 7.8788 118.711 7.5784C119.883 7.25068 121.166 7.08682 122.557 7.08682C123.675 7.08682 124.412 7.22337 124.766 7.49647C125.121 7.74225 125.298 8.32941 125.298 9.25793V24.3328Z" fill="white"/>
<path d="M142.822 6.882C144.05 6.882 144.95 7.19606 145.523 7.82418C146.096 8.4523 146.382 9.31255 146.382 10.4049C146.382 11.5792 146.068 12.5351 145.441 13.2724C144.841 14.0098 144.022 14.3785 142.986 14.3785C142.086 14.3785 141.349 14.119 140.776 13.6002C140.231 13.0813 139.958 12.4668 139.958 11.7568C139.958 11.3198 139.999 10.9784 140.081 10.7326C139.099 10.9784 138.267 11.4017 137.585 12.0025V24.2918C137.585 24.9746 137.68 25.4935 137.871 25.8485C138.062 26.2035 138.43 26.4766 138.976 26.6678C139.549 26.8316 140.394 26.9135 141.513 26.9135C141.513 27.4051 141.458 27.8284 141.349 28.1834C141.24 28.5112 141.035 28.8252 140.735 29.1256H129.81C129.183 28.4975 128.869 27.7601 128.869 26.9135C129.66 26.9135 130.219 26.7497 130.547 26.422C130.901 26.067 131.079 25.4798 131.079 24.6605V12.8218C131.079 12.0845 130.874 11.5656 130.465 11.2652C130.083 10.9648 129.387 10.8146 128.378 10.8146V8.97118C129.278 8.4523 130.465 8.00169 131.938 7.61936C133.438 7.20972 134.598 7.0049 135.416 7.0049C136.071 7.0049 136.534 7.23703 136.807 7.70129C137.08 8.16555 137.216 9.09408 137.216 10.4869C137.707 9.55834 138.485 8.7254 139.549 7.98804C140.613 7.25068 141.704 6.882 142.822 6.882Z" fill="white"/>
<path d="M157.233 24.2509C160.752 24.4967 163.371 25.1384 165.09 26.1762C166.835 27.1866 167.708 28.6887 167.708 30.6823C167.708 32.0751 167.19 33.3449 166.153 34.4919C165.117 35.6663 163.739 36.5811 162.021 37.2366C160.329 37.9193 158.515 38.2607 156.579 38.2607C153.332 38.2607 150.905 37.6735 149.295 36.4992C147.686 35.3522 146.881 33.8092 146.881 31.8702C146.881 30.8598 147.208 29.9449 147.863 29.1256C148.545 28.279 149.513 27.6509 150.768 27.2413C150.223 26.8589 149.854 26.4083 149.663 25.8894C149.5 25.3706 149.418 24.7288 149.418 23.9641C149.418 23.4725 149.609 22.981 149.991 22.4894C150.373 21.9705 150.905 21.5882 151.587 21.3424C150.305 20.6597 149.295 19.7175 148.559 18.5159C147.849 17.3142 147.495 16.017 147.495 14.6243C147.495 13.2042 147.836 11.9343 148.518 10.8146C149.227 9.66758 150.25 8.76636 151.587 8.11093C152.951 7.42819 154.601 7.08682 156.538 7.08682H156.579C157.561 7.08682 158.406 7.1551 159.116 7.29165C161.68 7.29165 163.439 7.26434 164.394 7.20972C165.376 7.12779 166.317 7.01855 167.217 6.882C167.49 6.882 167.695 7.07317 167.831 7.4555C167.995 7.81053 168.077 8.19286 168.077 8.6025C168.077 9.83143 167.545 10.4459 166.481 10.4459C166.235 10.4459 165.485 10.2001 164.23 9.70854C164.012 9.5993 163.685 9.46276 163.248 9.2989C164.148 10.0363 164.844 10.8829 165.335 11.8387C165.826 12.7672 166.072 13.6684 166.072 14.5423C166.072 17.0821 165.199 19.0347 163.453 20.4002C161.734 21.7384 159.32 22.4075 156.21 22.4075C155.447 22.4075 154.587 22.3119 153.633 22.1207V22.2436C153.633 22.899 153.892 23.377 154.41 23.6774C154.928 23.9505 155.869 24.1416 157.233 24.2509ZM156.906 9.79047C156.033 9.79047 155.406 10.2411 155.024 11.1423C154.669 12.0435 154.492 13.3544 154.492 15.0749C154.492 18.1608 155.297 19.7038 156.906 19.7038C157.779 19.7038 158.406 19.2396 158.788 18.311C159.17 17.3825 159.361 15.9624 159.361 14.0508C159.361 12.5487 159.156 11.47 158.747 10.8146C158.338 10.1318 157.724 9.79047 156.906 9.79047ZM157.929 34.9016C159.184 34.9016 160.111 34.6012 160.711 34.0004C161.311 33.3996 161.612 32.6486 161.612 31.7473C161.612 30.9281 161.107 30.3136 160.098 29.9039C159.116 29.5216 157.561 29.1529 155.433 28.7979L153.592 28.4292C153.237 29.03 153.06 29.822 153.06 30.8052C153.06 32.0614 153.442 33.0582 154.205 33.7956C154.969 34.5329 156.21 34.9016 157.929 34.9016Z" fill="white"/>
<path d="M180.937 24.9473C182.656 24.9473 184.251 24.4011 185.724 23.3087C185.943 23.5272 186.134 23.8549 186.297 24.2918C186.461 24.7288 186.543 25.1111 186.543 25.4388C186.543 25.9304 186.216 26.5039 185.561 27.1593C184.906 27.7875 183.992 28.3336 182.819 28.7979C181.674 29.2622 180.378 29.4943 178.932 29.4943C176.913 29.4943 175.14 29.0573 173.613 28.1834C172.112 27.3095 170.953 26.0396 170.135 24.3738C169.316 22.7079 168.907 20.7416 168.907 18.4749C168.907 16.1536 169.344 14.119 170.217 12.3712C171.117 10.6234 172.344 9.28524 173.899 8.35672C175.454 7.40088 177.214 6.92297 179.178 6.92297C181.66 6.92297 183.638 7.64667 185.111 9.09408C186.584 10.5415 187.32 12.5487 187.32 15.1158C187.32 16.3174 187.129 17.2733 186.747 17.9833C186.366 18.6661 185.684 19.0074 184.702 19.0074H175.863C176.027 22.9673 177.718 24.9473 180.937 24.9473ZM178.932 9.7495C178.086 9.7495 177.377 10.2274 176.804 11.1833C176.231 12.1118 175.918 13.6821 175.863 15.8942H179.996C180.432 15.8942 180.719 15.7439 180.855 15.4435C180.992 15.1431 181.06 14.6789 181.06 14.0508C181.06 12.4395 180.869 11.3198 180.487 10.6917C180.105 10.0636 179.587 9.7495 178.932 9.7495Z" fill="white"/>
<path d="M203.44 6.882C204.668 6.882 205.568 7.19606 206.141 7.82418C206.714 8.4523 207 9.31255 207 10.4049C207 11.5792 206.686 12.5351 206.059 13.2724C205.459 14.0098 204.64 14.3785 203.604 14.3785C202.704 14.3785 201.967 14.119 201.394 13.6002C200.849 13.0813 200.576 12.4668 200.576 11.7568C200.576 11.3198 200.617 10.9784 200.699 10.7326C199.717 10.9784 198.885 11.4017 198.203 12.0025V24.2918C198.203 24.9746 198.298 25.4935 198.489 25.8485C198.68 26.2035 199.048 26.4766 199.594 26.6678C200.167 26.8316 201.012 26.9135 202.131 26.9135C202.131 27.4051 202.076 27.8284 201.967 28.1834C201.858 28.5112 201.653 28.8252 201.353 29.1256H190.428C189.801 28.4975 189.487 27.7601 189.487 26.9135C190.278 26.9135 190.837 26.7497 191.165 26.422C191.519 26.067 191.697 25.4798 191.697 24.6605V12.8218C191.697 12.0845 191.492 11.5656 191.083 11.2652C190.701 10.9648 190.005 10.8146 188.996 10.8146V8.97118C189.896 8.4523 191.083 8.00169 192.556 7.61936C194.056 7.20972 195.216 7.0049 196.034 7.0049C196.689 7.0049 197.152 7.23703 197.425 7.70129C197.698 8.16555 197.834 9.09408 197.834 10.4869C198.325 9.55834 199.103 8.7254 200.167 7.98804C201.231 7.25068 202.322 6.882 203.44 6.882Z" fill="white"/>
</svg>
